HIERARCHY
ROOT Hips
{
	OFFSET 0.000000 0.000000 0.000000
	CHANNELS 6 Xposition Yposition Zposition Zrotation Yrotation Xrotation 
	JOINT LHipJoint
	{
		OFFSET 0.000000 0.000000 0.000000
		CHANNELS 3 Zrotation Yrotation Xrotation
		JOINT LeftUpLeg
		{
			OFFSET 1.363060 -1.794630 0.839290
			CHANNELS 3 Zrotation Yrotation Xrotation
			JOINT LeftLeg
			{
				OFFSET 2.448110 -6.726130 0.000000
				CHANNELS 3 Zrotation Yrotation Xrotation
				JOINT LeftFoot
				{
					OFFSET 2.562200 -7.039590 0.000000
					CHANNELS 3 Zrotation Yrotation Xrotation
					JOINT LeftToeBase
					{
						OFFSET 0.157640 -0.433110 2.322550
						CHANNELS 3 Zrotation Yrotation Xrotation
						End Site
						{
							OFFSET 0.000000 0.000000 0.000000
						}
					}
				}
			}
		}
	}
	JOINT RHipJoint
	{
		OFFSET 0.000000 0.000000 0.000000
		CHANNELS 3 Zrotation Yrotation Xrotation
		JOINT RightUpLeg
		{
			OFFSET -1.305520 -1.794630 0.839290
			CHANNELS 3 Zrotation Yrotation Xrotation
			JOINT RightLeg
			{
				OFFSET -2.542530 -6.985550 0.000000
				CHANNELS 3 Zrotation Yrotation Xrotation
				JOINT RightFoot
				{
					OFFSET -2.568260 -7.056230 0.000000
					CHANNELS 3 Zrotation Yrotation Xrotation
					JOINT RightToeBase
					{
						OFFSET -0.164730 -0.452590 2.363150
						CHANNELS 3 Zrotation Yrotation Xrotation
						End Site
						{
							OFFSET 0.000000 0.000000 0.000000
						}
					}
				}
			}
		}
	}
	JOINT LowerBack
	{
		OFFSET 0.000000 0.000000 0.000000
		CHANNELS 3 Zrotation Yrotation Xrotation
		JOINT Spine
		{
			OFFSET 0.028270 2.035590 -0.193380
			CHANNELS 3 Zrotation Yrotation Xrotation
			JOINT Spine1
			{
				OFFSET 0.056720 2.048850 -0.042750
				CHANNELS 3 Zrotation Yrotation Xrotation
				JOINT Neck
				{
					OFFSET 0.000000 0.000000 0.000000
					CHANNELS 3 Zrotation Yrotation Xrotation
					JOINT Neck1
					{
						OFFSET -0.054170 1.746240 0.172020
						CHANNELS 3 Zrotation Yrotation Xrotation
						JOINT Head
						{
							OFFSET 0.104070 1.761360 -0.123970
							CHANNELS 3 Zrotation Yrotation Xrotation
							End Site
							{
								OFFSET 0.000000 0.000000 0.000000
							}
						}
					}
				}
				JOINT LeftShoulder
				{
					OFFSET 0.000000 0.000000 0.000000
					CHANNELS 3 Zrotation Yrotation Xrotation
					JOINT LeftArm
					{
						OFFSET 3.362410 1.200890 -0.311210
						CHANNELS 3 Zrotation Yrotation Xrotation
						JOINT LeftForeArm
						{
							OFFSET 4.983000 -0.000000 -0.000000
							CHANNELS 3 Zrotation Yrotation Xrotation
							JOINT LeftHand
							{
								OFFSET 3.483560 -0.000000 -0.000000
								CHANNELS 3 Zrotation Yrotation Xrotation
								JOINT LeftFingerBase
								{
									OFFSET 0.000000 0.000000 0.000000
									CHANNELS 3 Zrotation Yrotation Xrotation
									JOINT LeftHandIndex1
									{
										OFFSET 0.715260 -0.000000 -0.000000
										CHANNELS 3 Zrotation Yrotation Xrotation
										End Site
										{
											OFFSET 0.000000 0.000000 0.000000
										}
									}
								}
								JOINT LThumb
								{
									OFFSET 0.000000 0.000000 0.000000
									CHANNELS 3 Zrotation Yrotation Xrotation
									End Site
									{
										OFFSET 0.000000 0.000000 0.000000
									}
								}
							}
						}
					}
				}
				JOINT RightShoulder
				{
					OFFSET 0.000000 0.000000 0.000000
					CHANNELS 3 Zrotation Yrotation Xrotation
					JOINT RightArm
					{
						OFFSET -3.136600 1.374050 -0.404650
						CHANNELS 3 Zrotation Yrotation Xrotation
						JOINT RightForeArm
						{
							OFFSET -5.241900 -0.000000 -0.000000
							CHANNELS 3 Zrotation Yrotation Xrotation
							JOINT RightHand
							{
								OFFSET -3.444170 -0.000000 -0.000000
								CHANNELS 3 Zrotation Yrotation Xrotation
								JOINT RightFingerBase
								{
									OFFSET 0.000000 0.000000 0.000000
									CHANNELS 3 Zrotation Yrotation Xrotation
									JOINT RightHandIndex1
									{
										OFFSET -0.622530 -0.000000 -0.000000
										CHANNELS 3 Zrotation Yrotation Xrotation
										End Site
										{
											OFFSET 0.000000 0.000000 0.000000
										}
									}
								}
								JOINT RThumb
								{
									OFFSET 0.000000 0.000000 0.000000
									CHANNELS 3 Zrotation Yrotation Xrotation
									End Site
									{
										OFFSET 0.000000 0.000000 0.000000
									}
								}
							}
						}
					}
				}
			}
		}
	}
}
MOTION
Frames: 11
Frame Time: 0.008333
3.382344 15.421542 0.486306 -3.126214 64.543012 14.716804 -14.339138 2.350616 -0.985597 4.613913 14.040930 -39.093360 6.751595 7.008634 110.974641 2.454392 12.629050 5.381776 2.303200 0.000000 -31.772700 8.501634 -1.882470 4.310545 15.587968 6.165957 -41.143313 2.057501 -3.393032 61.199716 -1.022068 8.200945 -34.704762 -1.839900 -0.000000 -29.716300 7.732124 -1.684830 -5.305494 0.900675 -2.481311 -4.064888 -6.120380 -2.512082 -0.518198 7.172476 -2.874760 -7.174276 -3.752964 -0.283147 0.111143 0.000000 0.000000 0.000000 6.236089 8.129014 1.629496 -48.044404 -3.441751 -3.327197 -0.340754 -82.685708 -0.115977 17.689516 1.080995 0.113820 -0.321426 0.379774 -0.000000 0.000000 0.000000 0.000000 0.000000 0.000000 0.000000 11.939332 1.870814 0.940196 65.177291 17.588113 -10.653402 0.705192 46.930876 -0.071867 -16.925108 3.411679 -0.554789 0.163024 -0.285515 -0.000000 0.000000 0.000000 0.000000 0.000000 0.000000 0.000000 
3.550911 15.493998 0.503324 -2.259599 64.190067 15.435228 -14.189128 2.061008 -0.956470 4.166059 13.430647 -40.278553 6.625521 6.914971 110.464199 2.474137 12.790543 5.415951 2.345900 -0.000000 -31.739500 8.616812 -1.882473 4.104873 14.739839 5.730754 -39.631960 2.140763 -3.260174 59.747349 -1.008880 8.159250 -34.543983 -1.824999 -0.000000 -31.465101 6.945361 -1.452198 -5.127493 0.750625 -2.178894 -4.055560 -5.974927 -2.214043 -0.629536 6.962425 -1.865885 -6.840693 -3.589907 -0.273806 0.198912 0.000000 0.000000 0.000000 5.875601 8.156868 2.037912 -50.329229 -2.284881 -1.006674 -0.555777 -76.823056 -0.095044 15.995644 2.555254 0.322704 -0.291349 0.315031 -0.000000 0.000000 0.000000 0.000000 0.000000 0.000000 0.000000 11.080093 3.108892 0.681437 64.329671 20.336370 -10.183321 0.470782 48.624436 -0.077883 -16.464211 3.608112 -0.572408 0.155765 -0.314862 -0.000000 0.000000 0.000000 0.000000 0.000000 0.000000 0.000000 
3.726610 15.579567 0.519445 -1.446457 63.892787 16.092445 -14.025349 1.781504 -0.910496 3.697688 12.852233 -41.420807 6.450549 6.803680 109.717838 2.519883 13.134384 5.596074 2.456500 -0.000000 -31.828201 8.720805 -1.886609 3.918053 13.852824 5.310064 -37.945661 2.232886 -3.098367 57.957692 -0.987449 8.086712 -34.217722 -1.784501 0.000000 -33.478900 6.218540 -1.214230 -4.981921 0.613719 -1.875891 -4.044690 -5.819612 -1.914022 -0.700400 6.687207 -1.007894 -6.562200 -3.414169 -0.263620 0.273541 0.000000 0.000000 0.000000 5.464293 8.263964 2.417087 -52.328962 -1.208735 1.380470 -0.858566 -70.903463 -0.074847 13.927213 3.760719 0.438055 -0.263295 0.256424 0.000000 0.000000 0.000000 0.000000 0.000000 0.000000 0.000000 10.093212 4.166454 0.402526 63.209947 23.027783 -9.932943 0.230106 50.415165 -0.084278 -16.077754 3.701384 -0.576140 0.147207 -0.344115 0.000000 0.000000 0.000000 0.000000 0.000000 0.000000 0.000000 
3.910853 15.678655 0.534363 -0.684540 63.673161 16.692053 -13.851195 1.516297 -0.842007 3.212045 12.290870 -42.511701 6.228803 6.674343 108.720067 2.588170 13.646478 5.867729 2.626600 0.000000 -32.014200 8.811756 -1.896932 3.747872 12.937242 4.887760 -36.067947 2.334120 -2.905321 55.811242 -0.951128 8.024680 -33.710431 -1.735700 -0.000000 -35.242500 5.561670 -0.972313 -4.870467 0.493312 -1.574298 -4.035958 -5.650993 -1.614439 -0.745397 6.347331 -0.306650 -6.328130 -3.229901 -0.252968 0.338339 0.000000 0.000000 0.000000 4.968414 8.438685 2.743935 -54.082572 -0.163706 3.806567 -1.235534 -65.052680 -0.056734 11.656722 4.564937 0.455972 -0.238635 0.204653 0.000000 0.000000 0.000000 0.000000 0.000000 0.000000 0.000000 8.985684 5.024266 0.108655 61.828678 25.611231 -9.957658 -0.009909 52.272311 -0.091070 -15.775204 3.720533 -0.571685 0.137574 -0.373159 0.000000 0.000000 0.000000 0.000000 0.000000 0.000000 0.000000 
4.104731 15.791438 0.548091 0.051440 63.548210 17.260508 -13.668906 1.269931 -0.746651 2.700663 11.726977 -43.538875 5.962616 6.525236 107.454464 2.673436 14.296946 6.175109 2.843700 0.000000 -32.246200 8.891702 -1.915435 3.592718 11.992396 4.447040 -33.994442 2.438729 -2.680153 53.288612 -0.887805 8.001366 -32.940982 -1.688000 -0.000000 -36.954200 4.969889 -0.729229 -4.795691 0.389548 -1.276712 -4.032378 -5.467786 -1.318473 -0.776469 5.951106 0.235029 -6.130770 -3.040185 -0.242094 0.395656 0.000000 0.000000 0.000000 4.367658 8.684643 3.002176 -55.622630 0.897268 6.219081 -1.658731 -59.383436 -0.041654 9.394333 4.925360 0.402247 -0.218282 0.159639 0.000000 0.000000 0.000000 0.000000 0.000000 0.000000 0.000000 7.772928 5.671778 -0.198293 60.211255 28.032915 -10.298335 -0.241007 54.175801 -0.098272 -15.561529 3.700000 -0.564739 0.127179 -0.401975 0.000000 0.000000 0.000000 0.000000 0.000000 0.000000 0.000000 
4.309009 15.917873 0.560889 0.792299 63.527761 17.831765 -13.479996 1.046574 -0.621446 2.154992 11.141284 -44.486894 5.655306 6.354367 105.904408 2.768045 15.037823 6.465242 3.089300 -0.000000 -32.432300 8.964571 -1.944010 3.453149 11.015690 3.980784 -31.732827 2.538246 -2.424180 50.382040 -0.786731 8.033248 -31.819607 -1.643200 -0.000000 -38.816701 4.432350 -0.487911 -4.761830 0.300958 -0.985690 -4.035843 -5.271128 -1.029274 -0.799874 5.512538 0.611201 -5.967347 -2.847068 -0.231086 0.446305 0.000000 0.000000 0.000000 3.655919 9.018538 3.184405 -56.971421 2.011182 8.551558 -2.091683 -53.988731 -0.029961 7.345476 4.895201 0.316362 -0.202550 0.120690 0.000000 0.000000 0.000000 0.000000 0.000000 0.000000 0.000000 6.477429 6.102442 -0.519233 58.396189 30.251809 -10.969163 -0.454160 56.109100 -0.105926 -15.442231 3.673079 -0.560299 0.116495 -0.430582 0.000000 0.000000 0.000000 0.000000 0.000000 0.000000 0.000000 
4.524172 16.057420 0.573046 1.556277 63.612971 18.431756 -13.286102 0.849026 -0.463522 1.575672 10.518089 -45.341481 5.311442 6.160050 104.053631 2.863479 15.806570 6.710641 3.343600 0.000000 -32.558900 9.033930 -1.985060 3.333379 10.011402 3.499345 -29.303192 2.623299 -2.141173 47.103126 -0.643428 8.120722 -30.280382 -1.594700 -0.000000 -40.820500 3.940492 -0.249373 -4.776990 0.226315 -0.702201 -4.050021 -5.062654 -0.748523 -0.825349 5.042208 0.835518 -5.829527 -2.650341 -0.219943 0.492609 0.000000 0.000000 0.000000 2.840946 9.431668 3.293327 -58.146160 3.241786 10.708164 -2.497005 -48.950756 -0.021468 5.669219 4.595113 0.232001 -0.191003 0.086846 0.000000 0.000000 0.000000 0.000000 0.000000 0.000000 0.000000 5.107689 6.337135 -0.855290 56.447031 32.212141 -11.981221 -0.640847 58.067834 -0.114089 -15.413478 3.672107 -0.562759 0.105921 -0.459156 0.000000 0.000000 0.000000 0.000000 0.000000 0.000000 0.000000 
4.750273 16.209204 0.584965 2.361320 63.794565 19.087309 -13.088122 0.679220 -0.272631 0.965179 9.848341 -46.087303 4.937326 5.941290 101.891870 2.951075 16.534987 6.900829 3.585900 0.000000 -32.612300 9.104978 -2.042011 3.238780 8.984316 3.020154 -26.738592 2.682334 -1.838101 43.476327 -0.457085 8.247129 -28.247637 -1.525800 0.000000 -43.095299 3.481497 -0.012997 -4.848682 0.163057 -0.425189 -4.075649 -4.845278 -0.475637 -0.851414 4.554225 0.916689 -5.718066 -2.449304 -0.208486 0.534064 0.000000 0.000000 0.000000 1.948439 9.946404 3.337857 -59.160019 4.587213 12.607230 -2.848506 -44.291281 -0.015629 4.466353 4.163600 0.167754 -0.182886 0.057270 0.000000 0.000000 0.000000 0.000000 0.000000 0.000000 0.000000 3.677888 6.394947 -1.210101 54.427255 33.883319 -13.315053 -0.793893 60.050515 -0.122835 -15.473692 3.717332 -0.574817 0.095903 -0.487754 0.000000 0.000000 0.000000 0.000000 0.000000 0.000000 0.000000 
4.986962 16.372069 0.597062 3.217669 64.054664 19.816651 -12.886509 0.538252 -0.049996 0.329190 9.130140 -46.708957 4.539829 5.697518 99.409385 3.022867 17.157308 7.041491 3.798600 -0.000000 -32.551101 9.183365 -2.119943 3.175383 7.941453 2.565877 -24.081257 2.703600 -1.525322 39.538541 -0.232906 8.381110 -25.649798 -1.412000 0.000000 -45.868600 3.041434 0.224197 -4.984448 0.107559 -0.151114 -4.114826 -4.623566 -0.207616 -0.881523 4.064136 0.869496 -5.627480 -2.244723 -0.196737 0.571852 0.000000 0.000000 0.000000 1.009611 10.537224 3.329984 -60.020957 6.084499 14.131583 -3.130454 -40.035572 -0.011734 3.777365 3.723386 0.128415 -0.177094 0.031293 0.000000 0.000000 0.000000 0.000000 0.000000 0.000000 0.000000 2.211591 6.303849 -1.580248 52.391339 35.243374 -14.931004 -0.906893 62.057611 -0.132235 -15.622446 3.814151 -0.597470 0.086946 -0.516285 0.000000 0.000000 0.000000 0.000000 0.000000 0.000000 0.000000 
5.233513 16.544433 0.609554 4.119787 64.368478 20.623935 -12.681994 0.425584 0.201437 -0.318640 8.369697 -47.194866 4.127379 5.429619 96.604976 3.072752 17.618433 7.165737 3.972999 0.000000 -32.460900 9.273261 -2.224492 3.148218 6.896510 2.165248 -21.381825 2.679136 -1.216537 35.350618 0.015023 8.486619 -22.461843 -1.229800 0.000000 -48.974600 2.610482 0.467420 -5.188774 0.057125 0.125685 -4.166411 -4.400241 0.060947 -0.908779 3.582241 0.713882 -5.561549 -2.035938 -0.184461 0.604328 0.000000 0.000000 0.000000 0.064638 11.227407 3.283385 -60.737242 7.677818 15.217346 -3.343688 -36.141651 -0.009061 3.603935 3.344062 0.110786 -0.172914 0.008631 0.000000 0.000000 0.000000 0.000000 0.000000 0.000000 0.000000 0.718718 6.095274 -1.966065 50.392427 36.284332 -16.785833 -0.976307 64.094187 -0.142295 -15.851284 3.959327 -0.630318 0.079296 -0.544579 0.000000 0.000000 0.000000 0.000000 0.000000 0.000000 0.000000 
5.488828 16.724494 0.622643 5.058182 64.708297 21.504833 -12.475042 0.340277 0.476679 -0.965727 7.578146 -47.533774 3.708861 5.139352 93.482913 3.096623 17.881230 7.311191 4.107200 0.000000 -32.403400 9.378538 -2.361430 3.158114 5.861750 1.836539 -18.693498 2.604646 -0.927823 30.982552 0.268227 8.526009 -18.666725 -0.960000 0.000000 -52.416900 2.178009 0.721900 -5.460133 0.008309 0.411172 -4.227930 -4.179007 0.335821 -0.925415 3.120145 0.467159 -5.525366 -1.824163 -0.171544 0.629386 0.000000 0.000000 0.000000 -0.849598 12.033987 3.210602 -61.307715 9.305956 15.828049 -3.497468 -32.569799 -0.006931 3.907367 3.041805 0.109371 -0.169804 -0.010916 0.000000 0.000000 0.000000 0.000000 0.000000 0.000000 0.000000 -0.779850 5.796302 -2.363977 48.460201 37.018852 -18.826085 -1.000153 66.160431 -0.152966 -16.152419 4.136730 -0.671561 0.073146 -0.572266 0.000000 0.000000 0.000000 0.000000 0.000000 0.000000 0.000000 
